<?xml version="1.0" standalone="no"?>
<!DOCTYPE svg PUBLIC "-//W3C//DTD SVG 20010904//EN"
 "http://www.w3.org/TR/2001/REC-SVG-20010904/DTD/svg10.dtd">
<svg version="1.0" xmlns="http://www.w3.org/2000/svg"
 width="370.000000pt" height="370.000000pt" viewBox="0 0 370.000000 370.000000"
 preserveAspectRatio="xMidYMid meet">
<metadata>
Created by potrace 1.11, written by Peter Selinger 2001-2013
</metadata>
<g transform="translate(0.000000,370.000000) scale(0.100000,-0.100000)"
fill="#000000" stroke="none">
<path d="M41 3126 c2 -2 44 -20 92 -40 102 -42 150 -71 194 -117 90 -95 82
-189 -33 -408 -55 -103 -188 -288 -251 -347 l-33 -30 94 -17 c233 -41 385
-140 482 -313 117 -209 134 -525 48 -872 -14 -57 -24 -105 -22 -107 2 -2 37 7
78 21 41 14 149 41 240 61 200 44 370 50 505 20 112 -26 263 -101 365 -184 98
-79 261 -257 327 -358 26 -38 48 -72 49 -73 1 -2 19 15 40 37 20 23 75 72 123
110 163 129 294 200 414 225 96 20 158 20 254 0 170 -35 316 -146 456 -347 14
-20 16 107 16 1361 l1 1382 -1722 0 c-947 0 -1719 -2 -1717 -4z m1394 -289
c-52 -93 -71 -262 -41 -373 18 -67 70 -164 107 -200 l29 -28 0 25 c0 58 32
134 75 176 23 24 46 43 51 43 5 0 9 -37 9 -83 0 -81 1 -85 42 -147 65 -100 93
-171 100 -248 11 -133 -29 -192 -230 -347 -87 -66 -160 -155 -178 -216 -7 -22
-19 -39 -26 -39 -8 0 -65 26 -126 57 -139 71 -217 144 -271 254 -48 100 -66
176 -66 286 0 121 13 180 63 283 l40 85 13 -69 c17 -90 54 -165 104 -210 22
-20 44 -36 49 -36 5 0 -3 35 -17 78 -33 101 -37 289 -8 392 45 157 137 289
237 338 64 32 71 28 44 -21z m545 -617 l0 -150 -62 1 -63 0 -34 72 c-19 40
-47 90 -62 112 -16 22 -35 57 -44 78 l-15 37 140 0 140 0 0 -150z m690 0 l0
-150 -325 0 -325 0 0 150 0 150 325 0 325 0 0 -150z m370 0 l0 -150 -160 0
-160 0 0 150 0 150 160 0 160 0 0 -150z m-710 -350 l0 -150 -291 0 -291 0 36
42 c46 53 76 134 76 203 l0 55 235 0 235 0 0 -150z m710 0 l0 -150 -335 0
-335 0 0 150 0 150 335 0 335 0 0 -150z m-1060 -350 l0 -150 -276 0 -275 0 6
23 c20 65 57 120 133 195 l83 82 164 0 165 0 0 -150z m690 0 l0 -150 -325 0
-325 0 0 150 0 150 325 0 325 0 0 -150z m370 0 l0 -150 -160 0 -160 0 0 150 0
150 160 0 160 0 0 -150z"/>
</g>
</svg>
